<svg width="4360" height="1880" viewBox="0 0 4360 1880" fill="none" xmlns="http://www.w3.org/2000/svg">
  <defs>
    <style>
      .bg { fill:#F8FAFC; }
      .panel { fill:#FFFFFF; stroke:#CBD5E1; stroke-width:1; }
      .rail { fill:#0F172A; }
      .nav { fill:#1E293B; }
      .muted { fill:#E2E8F0; }
      .brand { fill:#2563EB; }
      .ok { fill:#16A34A; }
      .warn { fill:#D97706; }
      .err { fill:#DC2626; }
      .t1 { font: 700 18px 'Inter', sans-serif; fill:#0F172A; }
      .t2 { font: 600 14px 'Inter', sans-serif; fill:#0F172A; }
      .t3 { font: 500 12px 'Inter', sans-serif; fill:#475569; }
      .inv { fill:#F8FAFC; font: 600 13px 'Inter', sans-serif; }
    </style>
  </defs>

  <!-- Board 1: Student Dashboard -->
  <rect x="20" y="20" width="1040" height="860" class="bg" stroke="#94A3B8"/>
  <text x="40" y="55" class="t1">Board 1: Student Dashboard (Desktop)</text>
  <rect x="40" y="80" width="72" height="770" class="rail" rx="8"/>
  <rect x="120" y="80" width="220" height="770" class="nav" rx="8"/>
  <text x="145" y="120" class="inv">Course Navigation</text>
  <text x="145" y="155" class="inv">Home</text>
  <text x="145" y="185" class="inv">Modules</text>
  <text x="145" y="215" class="inv">Assignments</text>
  <text x="145" y="245" class="inv">Quizzes</text>
  <text x="145" y="275" class="inv">Discussions</text>
  <text x="145" y="305" class="inv">Grades</text>
  <text x="145" y="335" class="inv">Pages</text>
  <text x="145" y="365" class="inv">Inbox</text>

  <rect x="360" y="80" width="680" height="64" class="panel" rx="10"/>
  <rect x="380" y="98" width="180" height="28" class="muted" rx="6"/>
  <rect x="860" y="98" width="160" height="28" class="brand" rx="6"/>

  <rect x="360" y="164" width="680" height="160" class="panel" rx="10"/>
  <text x="380" y="194" class="t2">My Courses</text>
  <rect x="380" y="210" width="200" height="96" class="muted" rx="8"/>
  <rect x="596" y="210" width="200" height="96" class="muted" rx="8"/>
  <rect x="812" y="210" width="208" height="96" class="muted" rx="8"/>

  <rect x="360" y="344" width="420" height="244" class="panel" rx="10"/>
  <text x="380" y="374" class="t2">To-Do</text>
  <rect x="380" y="390" width="380" height="38" class="muted" rx="6"/>
  <rect x="380" y="436" width="380" height="38" class="muted" rx="6"/>
  <rect x="380" y="482" width="380" height="38" class="muted" rx="6"/>
  <rect x="380" y="528" width="380" height="38" class="muted" rx="6"/>

  <rect x="800" y="344" width="240" height="244" class="panel" rx="10"/>
  <text x="820" y="374" class="t2">Recent Feedback</text>
  <rect x="820" y="392" width="200" height="48" class="muted" rx="6"/>
  <rect x="820" y="448" width="200" height="48" class="muted" rx="6"/>
  <rect x="820" y="504" width="200" height="48" class="muted" rx="6"/>

  <rect x="360" y="608" width="680" height="242" class="panel" rx="10"/>
  <text x="380" y="638" class="t2">Upcoming Events</text>
  <rect x="380" y="654" width="640" height="42" class="muted" rx="6"/>
  <rect x="380" y="704" width="640" height="42" class="muted" rx="6"/>
  <rect x="380" y="754" width="640" height="42" class="muted" rx="6"/>

  <!-- Board 2: Course Home + Modules -->
  <rect x="1100" y="20" width="1040" height="860" class="bg" stroke="#94A3B8"/>
  <text x="1120" y="55" class="t1">Board 2: Course Home + Modules</text>
  <rect x="1120" y="80" width="72" height="770" class="rail" rx="8"/>
  <rect x="1200" y="80" width="220" height="770" class="nav" rx="8"/>
  <rect x="1440" y="80" width="680" height="64" class="panel" rx="10"/>
  <text x="1460" y="120" class="t2">CS 540 - Course Home</text>

  <rect x="1440" y="164" width="680" height="160" class="panel" rx="10"/>
  <text x="1460" y="194" class="t2">Instructor Announcement</text>
  <rect x="1460" y="212" width="640" height="94" class="muted" rx="6"/>

  <rect x="1440" y="344" width="680" height="506" class="panel" rx="10"/>
  <text x="1460" y="374" class="t2">Modules</text>

  <rect x="1460" y="392" width="640" height="92" class="muted" rx="8"/>
  <rect x="1480" y="410" width="120" height="24" class="brand" rx="4"/>
  <text x="1488" y="426" class="inv">Week 1</text>
  <rect x="1620" y="410" width="210" height="24" class="panel" rx="4"/>
  <rect x="1844" y="410" width="110" height="24" class="ok" rx="4"/>

  <rect x="1460" y="496" width="640" height="92" class="muted" rx="8"/>
  <rect x="1480" y="514" width="120" height="24" class="brand" rx="4"/>
  <text x="1488" y="530" class="inv">Week 2</text>
  <rect x="1620" y="514" width="210" height="24" class="panel" rx="4"/>
  <rect x="1844" y="514" width="110" height="24" class="warn" rx="4"/>

  <rect x="1460" y="600" width="640" height="92" class="muted" rx="8"/>
  <rect x="1480" y="618" width="120" height="24" class="brand" rx="4"/>
  <text x="1488" y="634" class="inv">Week 3</text>
  <rect x="1620" y="618" width="210" height="24" class="panel" rx="4"/>
  <rect x="1844" y="618" width="110" height="24" class="err" rx="4"/>

  <!-- Board 3: Faculty Gradebook + SpeedGrader -->
  <rect x="2180" y="20" width="1040" height="860" class="bg" stroke="#94A3B8"/>
  <text x="2200" y="55" class="t1">Board 3: Faculty Gradebook + SpeedGrader</text>
  <rect x="2200" y="80" width="72" height="770" class="rail" rx="8"/>
  <rect x="2280" y="80" width="220" height="770" class="nav" rx="8"/>

  <rect x="2520" y="80" width="680" height="64" class="panel" rx="10"/>
  <text x="2540" y="120" class="t2">Gradebook - Filters - Export</text>

  <rect x="2520" y="164" width="680" height="280" class="panel" rx="10"/>
  <text x="2540" y="194" class="t2">Gradebook Table</text>
  <rect x="2540" y="210" width="640" height="34" class="muted" rx="4"/>
  <rect x="2540" y="250" width="640" height="30" class="panel" rx="4"/>
  <rect x="2540" y="286" width="640" height="30" class="panel" rx="4"/>
  <rect x="2540" y="322" width="640" height="30" class="panel" rx="4"/>
  <rect x="2540" y="358" width="640" height="30" class="panel" rx="4"/>

  <rect x="2520" y="464" width="200" height="386" class="panel" rx="10"/>
  <text x="2540" y="494" class="t2">Students</text>
  <rect x="2540" y="510" width="160" height="32" class="muted" rx="6"/>
  <rect x="2540" y="550" width="160" height="32" class="muted" rx="6"/>
  <rect x="2540" y="590" width="160" height="32" class="muted" rx="6"/>
  <rect x="2540" y="630" width="160" height="32" class="muted" rx="6"/>

  <rect x="2740" y="464" width="460" height="386" class="panel" rx="10"/>
  <text x="2760" y="494" class="t2">SpeedGrader</text>
  <rect x="2760" y="510" width="420" height="180" class="muted" rx="8"/>
  <rect x="2760" y="704" width="280" height="28" class="panel" rx="4"/>
  <rect x="3050" y="704" width="130" height="28" class="brand" rx="4"/>
  <rect x="2760" y="742" width="420" height="92" class="muted" rx="8"/>

  <!-- Board 4: Mobile bundle -->
  <rect x="3260" y="20" width="1040" height="1820" class="bg" stroke="#94A3B8"/>
  <text x="3280" y="55" class="t1">Board 4: Mobile (Student + Discussions + Calendar + Inbox)</text>

  <rect x="3320" y="90" width="260" height="520" class="panel" rx="28"/>
  <text x="3340" y="120" class="t2">Mobile Dashboard</text>
  <rect x="3340" y="136" width="220" height="42" class="muted" rx="8"/>
  <rect x="3340" y="188" width="220" height="88" class="muted" rx="10"/>
  <rect x="3340" y="286" width="220" height="88" class="muted" rx="10"/>
  <rect x="3340" y="384" width="220" height="88" class="muted" rx="10"/>

  <rect x="3620" y="90" width="260" height="520" class="panel" rx="28"/>
  <text x="3640" y="120" class="t2">Discussions</text>
  <rect x="3640" y="136" width="220" height="44" class="muted" rx="8"/>
  <rect x="3640" y="190" width="220" height="90" class="muted" rx="10"/>
  <rect x="3640" y="290" width="220" height="90" class="muted" rx="10"/>
  <rect x="3640" y="390" width="220" height="90" class="muted" rx="10"/>

  <rect x="3920" y="90" width="260" height="520" class="panel" rx="28"/>
  <text x="3940" y="120" class="t2">Calendar</text>
  <rect x="3940" y="136" width="220" height="160" class="muted" rx="8"/>
  <rect x="3940" y="306" width="220" height="70" class="muted" rx="10"/>
  <rect x="3940" y="386" width="220" height="70" class="muted" rx="10"/>
  <rect x="3940" y="466" width="220" height="70" class="muted" rx="10"/>

  <rect x="3320" y="670" width="260" height="520" class="panel" rx="28"/>
  <text x="3340" y="700" class="t2">Inbox</text>
  <rect x="3340" y="716" width="220" height="40" class="muted" rx="8"/>
  <rect x="3340" y="766" width="220" height="78" class="muted" rx="10"/>
  <rect x="3340" y="854" width="220" height="78" class="muted" rx="10"/>
  <rect x="3340" y="942" width="220" height="78" class="muted" rx="10"/>
  <rect x="3340" y="1030" width="220" height="78" class="muted" rx="10"/>

  <rect x="3620" y="670" width="560" height="520" class="panel" rx="16"/>
  <text x="3640" y="700" class="t2">Interaction Notes</text>
  <text x="3640" y="730" class="t3">- Keep left course nav persistent on desktop.</text>
  <text x="3640" y="752" class="t3">- Build modules-first learning flow.</text>
  <text x="3640" y="774" class="t3">- Add graded/missing/late chips consistently.</text>
  <text x="3640" y="796" class="t3">- Use split-pane inbox and speedgrader.</text>
  <text x="3640" y="818" class="t3">- Keep dense, readable data tables.</text>

  <rect x="3620" y="1240" width="560" height="560" class="panel" rx="16"/>
  <text x="3640" y="1270" class="t2">Build Checklist</text>
  <text x="3640" y="1300" class="t3">[ ] Student Dashboard / Course Home</text>
  <text x="3640" y="1322" class="t3">[ ] Modules + Assignment Detail</text>
  <text x="3640" y="1344" class="t3">[ ] Quiz Taking + Grades</text>
  <text x="3640" y="1366" class="t3">[ ] Faculty Gradebook + SpeedGrader</text>
  <text x="3640" y="1388" class="t3">[ ] Discussions + Inbox + Calendar</text>
  <text x="3640" y="1410" class="t3">[ ] Admin Users/Courses/Analytics</text>
</svg>
