<svg width="4560" height="2360" viewBox="0 0 4560 2360" fill="none" xmlns="http://www.w3.org/2000/svg">
  <defs>
    <style>
      .canvas { fill:#F8FAFC; }
      .frame { fill:#FFFFFF; stroke:#94A3B8; stroke-width:1; }
      .rail { fill:#0F172A; }
      .nav { fill:#1E293B; }
      .panel { fill:#FFFFFF; stroke:#CBD5E1; stroke-width:1; }
      .muted { fill:#E2E8F0; }
      .brand { fill:#2563EB; }
      .ok { fill:#16A34A; }
      .warn { fill:#D97706; }
      .err { fill:#DC2626; }
      .txt1 { font: 700 17px 'Inter', sans-serif; fill:#0F172A; }
      .txt2 { font: 600 13px 'Inter', sans-serif; fill:#0F172A; }
      .txt3 { font: 500 12px 'Inter', sans-serif; fill:#475569; }
      .inv { font: 600 12px 'Inter', sans-serif; fill:#F8FAFC; }
    </style>
  </defs>

  <rect x="0" y="0" width="4560" height="2360" class="canvas"/>

  <!-- S01 -->
  <rect x="20" y="20" width="1440" height="1024" class="frame"/>
  <text x="40" y="52" class="txt1">S01 Course Home Default</text>
  <rect x="40" y="84" width="72" height="936" class="rail" rx="10"/>
  <rect x="120" y="84" width="224" height="936" class="nav" rx="10"/>
  <text x="146" y="116" class="inv">Home</text>
  <text x="146" y="142" class="inv">Modules</text>
  <text x="146" y="168" class="inv">Assignments</text>
  <text x="146" y="194" class="inv">Quizzes</text>
  <text x="146" y="220" class="inv">Discussions</text>
  <text x="146" y="246" class="inv">Grades</text>

  <rect x="360" y="84" width="1080" height="64" class="panel" rx="10"/>
  <rect x="380" y="102" width="220" height="28" class="muted" rx="6"/>
  <rect x="1260" y="102" width="160" height="28" class="brand" rx="6"/>

  <rect x="360" y="168" width="740" height="170" class="panel" rx="10"/>
  <text x="382" y="198" class="txt2">Course Details + Summary Card</text>
  <rect x="382" y="214" width="696" height="106" class="muted" rx="8"/>

  <rect x="1120" y="168" width="320" height="170" class="panel" rx="10"/>
  <text x="1142" y="198" class="txt2">To-Do</text>
  <rect x="1142" y="212" width="276" height="30" class="muted" rx="6"/>
  <rect x="1142" y="248" width="276" height="30" class="muted" rx="6"/>
  <rect x="1142" y="284" width="276" height="30" class="muted" rx="6"/>

  <rect x="360" y="358" width="1080" height="662" class="panel" rx="10"/>
  <text x="382" y="388" class="txt2">Announcements / Quizzes / Assignments / Grades</text>
  <rect x="382" y="404" width="1036" height="44" class="muted" rx="6"/>
  <rect x="382" y="456" width="1036" height="44" class="panel" rx="6"/>
  <rect x="382" y="508" width="1036" height="44" class="panel" rx="6"/>
  <rect x="382" y="560" width="1036" height="44" class="panel" rx="6"/>
  <rect x="382" y="612" width="1036" height="44" class="panel" rx="6"/>

  <!-- S03 -->
  <rect x="1540" y="20" width="1440" height="1024" class="frame"/>
  <text x="1560" y="52" class="txt1">S03 Modules Expanded</text>
  <rect x="1560" y="84" width="72" height="936" class="rail" rx="10"/>
  <rect x="1640" y="84" width="224" height="936" class="nav" rx="10"/>
  <rect x="1880" y="84" width="1080" height="64" class="panel" rx="10"/>
  <text x="1902" y="122" class="txt2">Modules</text>

  <rect x="1880" y="168" width="1080" height="852" class="panel" rx="10"/>

  <rect x="1902" y="190" width="1036" height="130" class="muted" rx="10"/>
  <text x="1920" y="218" class="txt2">Module: Week 1</text>
  <rect x="1920" y="232" width="360" height="30" class="panel" rx="6"/>
  <rect x="2290" y="232" width="120" height="30" class="ok" rx="6"/>
  <rect x="2420" y="232" width="180" height="30" class="brand" rx="6"/>

  <rect x="1902" y="334" width="1036" height="130" class="muted" rx="10"/>
  <text x="1920" y="362" class="txt2">Module: Week 2</text>
  <rect x="1920" y="376" width="360" height="30" class="panel" rx="6"/>
  <rect x="2290" y="376" width="120" height="30" class="warn" rx="6"/>
  <rect x="2420" y="376" width="180" height="30" class="brand" rx="6"/>

  <rect x="1902" y="478" width="1036" height="130" class="muted" rx="10"/>
  <text x="1920" y="506" class="txt2">Module: Week 3</text>
  <rect x="1920" y="520" width="360" height="30" class="panel" rx="6"/>
  <rect x="2290" y="520" width="120" height="30" class="err" rx="6"/>
  <rect x="2420" y="520" width="180" height="30" class="brand" rx="6"/>

  <rect x="1902" y="622" width="1036" height="130" class="muted" rx="10"/>
  <text x="1920" y="650" class="txt2">Module: Week 4</text>
  <rect x="1920" y="664" width="360" height="30" class="panel" rx="6"/>
  <rect x="2290" y="664" width="120" height="30" class="ok" rx="6"/>
  <rect x="2420" y="664" width="180" height="30" class="brand" rx="6"/>

  <!-- S05 -->
  <rect x="3060" y="20" width="1440" height="1024" class="frame"/>
  <text x="3080" y="52" class="txt1">S05 Assignment Detail - Not Submitted</text>
  <rect x="3080" y="84" width="72" height="936" class="rail" rx="10"/>
  <rect x="3160" y="84" width="224" height="936" class="nav" rx="10"/>

  <rect x="3400" y="84" width="1080" height="64" class="panel" rx="10"/>
  <rect x="3420" y="102" width="160" height="28" class="muted" rx="6"/>

  <rect x="3400" y="168" width="1080" height="220" class="panel" rx="10"/>
  <text x="3420" y="198" class="txt2">Assignment Header + Description</text>
  <rect x="3420" y="214" width="1036" height="156" class="muted" rx="8"/>

  <rect x="3400" y="408" width="1080" height="612" class="panel" rx="10"/>
  <text x="3420" y="438" class="txt2">Submission Form</text>
  <rect x="3420" y="454" width="1036" height="200" class="muted" rx="8"/>
  <rect x="3420" y="670" width="1036" height="170" class="muted" rx="8"/>
  <rect x="4260" y="952" width="196" height="44" class="brand" rx="8"/>

  <!-- S08 -->
  <rect x="20" y="1100" width="1440" height="1024" class="frame"/>
  <text x="40" y="1132" class="txt1">S08 Assignment Detail - Graded</text>
  <rect x="40" y="1164" width="72" height="936" class="rail" rx="10"/>
  <rect x="120" y="1164" width="224" height="936" class="nav" rx="10"/>
  <rect x="360" y="1164" width="1080" height="64" class="panel" rx="10"/>

  <rect x="360" y="1248" width="1080" height="210" class="panel" rx="10"/>
  <rect x="1240" y="1266" width="180" height="28" class="ok" rx="6"/>
  <rect x="380" y="1284" width="1036" height="154" class="muted" rx="8"/>

  <rect x="360" y="1478" width="1080" height="220" class="panel" rx="10"/>
  <text x="382" y="1508" class="txt2">Grade + Feedback</text>
  <rect x="382" y="1524" width="180" height="34" class="ok" rx="6"/>
  <rect x="382" y="1570" width="1036" height="108" class="muted" rx="8"/>

  <rect x="360" y="1718" width="1080" height="382" class="panel" rx="10"/>
  <text x="382" y="1748" class="txt2">Resubmission Area</text>
  <rect x="382" y="1764" width="1036" height="210" class="muted" rx="8"/>
  <rect x="1222" y="2038" width="196" height="44" class="muted" rx="8"/>

  <!-- S09 -->
  <rect x="1540" y="1100" width="1440" height="1024" class="frame"/>
  <text x="1560" y="1132" class="txt1">S09 Error State</text>
  <rect x="1560" y="1164" width="72" height="936" class="rail" rx="10"/>
  <rect x="1640" y="1164" width="224" height="936" class="nav" rx="10"/>
  <rect x="1880" y="1164" width="1080" height="936" class="panel" rx="10"/>
  <rect x="2140" y="1440" width="560" height="220" class="panel" rx="10"/>
  <rect x="2160" y="1462" width="520" height="44" class="err" rx="8"/>
  <text x="2180" y="1490" class="inv">Failed to load assignment details</text>
  <rect x="2160" y="1520" width="250" height="42" class="muted" rx="8"/>
  <rect x="2430" y="1520" width="250" height="42" class="brand" rx="8"/>

  <!-- Mobile Set -->
  <rect x="3060" y="1100" width="1440" height="1024" class="frame"/>
  <text x="3080" y="1132" class="txt1">Mobile Flow (390 x 844 each)</text>

  <rect x="3120" y="1180" width="390" height="844" class="panel" rx="30"/>
  <text x="3142" y="1210" class="txt2">M01 Course Overview</text>
  <rect x="3142" y="1224" width="346" height="56" class="muted" rx="10"/>
  <rect x="3142" y="1290" width="346" height="120" class="muted" rx="10"/>
  <rect x="3142" y="1420" width="346" height="88" class="muted" rx="10"/>
  <rect x="3142" y="1518" width="346" height="88" class="muted" rx="10"/>

  <rect x="3540" y="1180" width="390" height="844" class="panel" rx="30"/>
  <text x="3562" y="1210" class="txt2">M02 Modules</text>
  <rect x="3562" y="1224" width="346" height="56" class="muted" rx="10"/>
  <rect x="3562" y="1290" width="346" height="112" class="muted" rx="10"/>
  <rect x="3562" y="1412" width="346" height="112" class="muted" rx="10"/>
  <rect x="3562" y="1534" width="346" height="112" class="muted" rx="10"/>

  <rect x="3960" y="1180" width="390" height="844" class="panel" rx="30"/>
  <text x="3982" y="1210" class="txt2">M03 Assignment Detail</text>
  <rect x="3982" y="1224" width="346" height="56" class="muted" rx="10"/>
  <rect x="3982" y="1290" width="346" height="160" class="muted" rx="10"/>
  <rect x="3982" y="1460" width="346" height="180" class="muted" rx="10"/>
  <rect x="4132" y="1960" width="196" height="42" class="brand" rx="8"/>

</svg>
